<svg width="33" height="33" viewBox="0 0 33 33" fill="none" xmlns="http://www.w3.org/2000/svg">
<circle cx="16.5" cy="16.3999" r="16" fill="white"/>
<g clip-path="url(#clip0_22_1303)">
<path fill-rule="evenodd" clip-rule="evenodd" d="M25.716 16.6183C25.716 15.9376 25.6549 15.283 25.5415 14.6547H16.5V18.3681H21.6666C21.444 19.5681 20.7677 20.5848 19.7509 21.2656V23.6743H22.8535C24.6688 22.003 25.716 19.5419 25.716 16.6183Z" fill="#4285F4"/>
<path fill-rule="evenodd" clip-rule="evenodd" d="M16.5 26C19.092 26 21.2651 25.1404 22.8535 23.6742L19.7509 21.2655C18.8913 21.8415 17.7917 22.1818 16.5 22.1818C13.9997 22.1818 11.8833 20.4931 11.1284 18.224H7.92111V20.7113C9.50075 23.8487 12.7473 26 16.5 26Z" fill="#34A853"/>
<path fill-rule="evenodd" clip-rule="evenodd" d="M11.1284 18.224C10.9364 17.648 10.8273 17.0327 10.8273 16.4C10.8273 15.7673 10.9364 15.152 11.1284 14.576V12.0887H7.92112C7.27093 13.3847 6.90002 14.8509 6.90002 16.4C6.90002 17.9491 7.27093 19.4153 7.92112 20.7113L11.1284 18.224Z" fill="#FBBC05"/>
<path fill-rule="evenodd" clip-rule="evenodd" d="M16.5 10.6182C17.9095 10.6182 19.1749 11.1026 20.1698 12.0539L22.9233 9.30041C21.2607 7.75132 19.0877 6.80005 16.5 6.80005C12.7473 6.80005 9.50075 8.95132 7.92111 12.0888L11.1284 14.576C11.8833 12.307 13.9997 10.6182 16.5 10.6182Z" fill="#EA4335"/>
</g>
<defs>
<clipPath id="clip0_22_1303">
<rect width="19.2" height="19.2" fill="white" transform="translate(6.90002 6.80005)"/>
</clipPath>
</defs>
</svg>
